<?xml version="1.0" encoding="UTF-8" standalone="no"?><svg width="100%" height="100%" viewBox="0 0 1000 1000" version="1.1" style="fill-rule:evenodd;clip-rule:evenodd;stroke-linejoin:round;stroke-miterlimit:1.41421;"><path d="M276.02,303.939l0.453,0l-0.453,-8.959c0,-123.618 100.362,-223.98 223.98,-223.98c123.618,0 223.98,100.362 223.98,223.98l-0.453,8.959l0.453,0l0,250.857l-0.906,0c-4.507,119.543 -102.955,215.02 -223.527,215.02c-120.572,0 -219.02,-95.477 -223.527,-215.02l0,-250.857Z" style="fill:#fff;"/><path d="M764.264,545.494c-0.207,-1.349 -0.315,-2.73 -0.315,-4.137c0,-14.93 12.121,-27.051 27.051,-27.051c14.93,0 27.051,12.121 27.051,27.051l0,0.514c-0.278,175.301 -142.685,317.537 -318.051,317.537c-175.537,0 -318.051,-142.514 -318.051,-318.051l0.001,-0.175c0.094,-14.849 12.178,-26.876 27.05,-26.876c14.93,0 27.051,12.121 27.051,27.051c0,1.406 -0.108,2.788 -0.315,4.137c2.215,143.966 119.778,260.159 264.264,260.159c144.487,0 262.05,-116.194 264.264,-260.159Z" style="fill:#fff;"/><path d="M410.348,895.125l179.304,0c14.93,0 27.051,12.121 27.051,27.051c0,14.929 -12.121,27.051 -27.051,27.051c0,0 -179.304,0 -179.304,0c-14.93,0 -27.051,-12.122 -27.051,-27.051c0,-14.93 12.121,-27.051 27.051,-27.051Z" style="fill:#fff;"/></svg>